<svg width="32" height="25" viewBox="0 0 32 25" fill="none" xmlns="http://www.w3.org/2000/svg">
<path d="M5.81764 24.8757V23.221C5.81764 22.5866 5.43339 22.173 4.77477 22.173C4.44552 22.173 4.08877 22.2833 3.84177 22.6419C3.64977 22.3385 3.37539 22.173 2.96377 22.173C2.68927 22.173 2.41502 22.2557 2.19539 22.5591V22.2282H1.61914V24.8757H2.19539V23.414C2.19539 22.9453 2.44239 22.7245 2.82664 22.7245C3.21064 22.7245 3.40289 22.9728 3.40289 23.414V24.8757H3.97914V23.414C3.97914 22.9453 4.25339 22.7245 4.61014 22.7245C4.99439 22.7245 5.18639 22.9728 5.18639 23.414V24.8757H5.81764ZM14.3515 22.2282H13.4186V21.4284H12.8424V22.2282H12.321V22.752H12.8423V23.9656C12.8423 24.5724 13.0893 24.9308 13.7479 24.9308C13.9949 24.9308 14.2691 24.8481 14.4614 24.7378L14.2966 24.2414C14.132 24.3517 13.94 24.3793 13.8028 24.3793C13.5284 24.3793 13.4186 24.2138 13.4186 23.938V22.752H14.3515V22.2282ZM19.236 22.1729C18.9068 22.1729 18.6873 22.3385 18.55 22.5591V22.2282H17.9738V24.8757H18.55V23.3865C18.55 22.9453 18.742 22.697 19.0988 22.697C19.2085 22.697 19.3458 22.7246 19.4555 22.7522L19.6201 22.2007C19.5104 22.173 19.3458 22.173 19.236 22.173V22.1729ZM11.8545 22.4488C11.58 22.2557 11.1959 22.173 10.7843 22.173C10.1258 22.173 9.68677 22.5039 9.68677 23.0279C9.68677 23.4692 10.016 23.7174 10.5923 23.8002L10.8666 23.8278C11.1685 23.8828 11.3331 23.9656 11.3331 24.1035C11.3331 24.2965 11.1136 24.4344 10.7294 24.4344C10.3453 24.4344 10.0434 24.2965 9.85126 24.1587L9.57689 24.5999C9.87877 24.8205 10.2904 24.9308 10.7019 24.9308C11.4703 24.9308 11.9094 24.5724 11.9094 24.0759C11.9094 23.6071 11.5526 23.3588 11.0038 23.2762L10.7294 23.2485C10.4824 23.2209 10.2904 23.1659 10.2904 23.0004C10.2904 22.8073 10.4824 22.697 10.7843 22.697C11.1136 22.697 11.4429 22.8348 11.6075 22.9176L11.8545 22.4488ZM27.1664 22.173C26.837 22.173 26.6175 22.3385 26.4803 22.5591V22.2282H25.904V24.8757H26.4803V23.3865C26.4803 22.9453 26.6724 22.697 27.029 22.697C27.1389 22.697 27.2761 22.7246 27.3859 22.7522L27.5505 22.2007C27.4408 22.173 27.2761 22.173 27.1664 22.173ZM19.8123 23.5519C19.8123 24.3517 20.361 24.9308 21.2118 24.9308C21.5959 24.9308 21.8703 24.8481 22.1446 24.6275L21.8703 24.1587C21.6508 24.3241 21.4313 24.4068 21.1843 24.4068C20.7178 24.4068 20.3885 24.0759 20.3885 23.5519C20.3885 23.0556 20.7178 22.7245 21.1843 22.697C21.4313 22.697 21.6508 22.7797 21.8703 22.9453L22.1446 22.4764C21.8703 22.2557 21.5959 22.173 21.2118 22.173C20.361 22.173 19.8123 22.7522 19.8123 23.5519ZM25.1358 23.5519V22.2282H24.5595V22.5591C24.3674 22.311 24.093 22.173 23.7363 22.173C22.9954 22.173 22.4191 22.7522 22.4191 23.5519C22.4191 24.3517 22.9954 24.9308 23.7363 24.9308C24.1204 24.9308 24.3949 24.793 24.5595 24.5448V24.8757H25.1358V23.5519ZM23.0228 23.5519C23.0228 23.0831 23.3246 22.697 23.8185 22.697C24.285 22.697 24.6144 23.0556 24.6144 23.5519C24.6144 24.0208 24.285 24.4068 23.8185 24.4068C23.3246 24.3792 23.0228 24.0208 23.0228 23.5519ZM16.1353 22.173C15.3669 22.173 14.818 22.7245 14.818 23.5519C14.818 24.3793 15.3668 24.9308 16.1626 24.9308C16.5468 24.9308 16.931 24.8205 17.2329 24.5724L16.9584 24.1587C16.7389 24.3241 16.4645 24.4344 16.1901 24.4344C15.8334 24.4344 15.4766 24.269 15.3943 23.8H17.3426V23.5795C17.3701 22.7245 16.8761 22.173 16.1351 22.173H16.1353ZM16.1353 22.6694C16.4919 22.6694 16.739 22.8901 16.7938 23.3038H15.4218C15.4766 22.9453 15.7236 22.6694 16.1353 22.6694ZM30.4318 23.5519V21.1802H29.8555V22.5591C29.6634 22.311 29.389 22.173 29.0323 22.173C28.2914 22.173 27.7151 22.7522 27.7151 23.5519C27.7151 24.3517 28.2914 24.9308 29.0323 24.9308C29.4165 24.9308 29.6909 24.793 29.8555 24.5448V24.8757H30.4318V23.5519ZM28.3189 23.5519C28.3189 23.0831 28.6206 22.697 29.1146 22.697C29.5811 22.697 29.9104 23.0556 29.9104 23.5519C29.9104 24.0208 29.5811 24.4068 29.1146 24.4068C28.6206 24.3792 28.3189 24.0208 28.3189 23.5519ZM9.05552 23.5519V22.2282H8.47927V22.5591C8.28714 22.311 8.01277 22.173 7.65602 22.173C6.91514 22.173 6.33889 22.7522 6.33889 23.5519C6.33889 24.3517 6.91514 24.9308 7.65602 24.9308C8.04027 24.9308 8.31464 24.793 8.47927 24.5448V24.8757H9.05552V23.5519ZM6.91514 23.5519C6.91514 23.0831 7.21702 22.697 7.71089 22.697C8.17739 22.697 8.50677 23.0556 8.50677 23.5519C8.50677 24.0208 8.17739 24.4068 7.71089 24.4068C7.21702 24.3792 6.91514 24.0208 6.91514 23.5519Z" fill="black"/>
<path d="M11.6621 2.12354H20.3059V17.733H11.6621V2.12354Z" fill="#FF5F00"/>
<path d="M12.2111 9.92827C12.2111 6.75678 13.6929 3.94372 15.9704 2.12349C14.2966 0.799749 12.1838 0 9.87875 0C4.41787 0 0 4.44008 0 9.92827C0 15.4163 4.41787 19.8565 9.87862 19.8565C12.1836 19.8565 14.2965 19.0568 15.9704 17.7329C13.6929 15.9403 12.2111 13.0997 12.2111 9.92827Z" fill="#EB001B"/>
<path d="M31.9684 9.92827C31.9684 15.4163 27.5505 19.8565 22.0898 19.8565C19.7848 19.8565 17.6719 19.0568 15.998 17.7329C18.303 15.9128 19.7574 13.0997 19.7574 9.92827C19.7574 6.75678 18.2755 3.94372 15.998 2.12349C17.6718 0.799749 19.7848 0 22.0898 0C27.5505 0 31.9685 4.46771 31.9685 9.92827H31.9684Z" fill="#F79E1B"/>
</svg>
